<?xml version="1.0" standalone="no"?>
<!DOCTYPE svg PUBLIC "-//W3C//DTD SVG 20010904//EN"
 "http://www.w3.org/TR/2001/REC-SVG-20010904/DTD/svg10.dtd">
<svg version="1.0" xmlns="http://www.w3.org/2000/svg"
 width="119.000000pt" height="119.000000pt" viewBox="0 0 119.000000 119.000000"
 preserveAspectRatio="xMidYMid meet">
<metadata>
Created by potrace 1.14, written by Peter Selinger 2001-2017
</metadata>
<g transform="translate(0.000000,119.000000) scale(0.100000,-0.100000)"
fill="#000000" stroke="none">
<path d="M535 1113 c-27 -38 -125 -144 -219 -238 -222 -221 -258 -286 -253
-463 4 -150 65 -224 203 -249 81 -15 147 -7 215 27 58 28 61 29 46 8 -8 -13
-36 -45 -62 -72 -41 -42 -46 -52 -41 -79 9 -43 13 -44 44 -10 15 16 44 42 64
56 22 17 47 48 63 82 14 30 28 55 30 55 3 0 22 -11 43 -23 73 -46 154 -61 247
-44 87 16 141 52 178 122 28 52 33 190 10 267 -31 108 -59 145 -242 327 -97
97 -197 204 -221 239 -24 34 -47 62 -50 62 -4 0 -28 -30 -55 -67z"/>
</g>
</svg>
